<svg width="251" height="151" viewBox="0 0 251 151" fill="none" xmlns="http://www.w3.org/2000/svg">
<path d="M183.765 46.5237L179.468 42.2268C177.124 39.8831 172.827 39.8831 170.483 42.2268L150.562 62.5393L130.249 42.2268C127.905 39.8831 123.608 39.8831 121.265 42.2268L116.968 46.5237C114.624 48.8674 114.624 53.1643 116.968 55.5081L137.28 75.4299L116.968 95.7424C114.624 98.0862 114.624 102.383 116.968 104.727L121.265 109.024C123.608 111.367 127.905 111.367 130.249 109.024L150.562 88.7112L170.483 109.024C172.827 111.367 177.124 111.367 179.468 109.024L183.765 104.727C186.108 102.383 186.108 98.0862 183.765 95.7424L163.452 75.4299L183.765 55.5081C186.108 53.1643 186.108 48.8674 183.765 46.5237ZM225.562 0.429932H80.6396C73.999 0.429932 67.749 3.16431 63.0615 7.85181L4.07715 66.8362C-1.00098 71.5237 -1.00098 79.7268 4.07715 84.4143L63.0615 143.399C67.749 148.086 73.999 150.43 80.6396 150.43H225.562C239.233 150.43 250.562 139.492 250.562 125.43V25.4299C250.562 11.7581 239.233 0.429932 225.562 0.429932ZM231.812 125.43C231.812 128.946 228.687 131.68 225.562 131.68H80.6396C78.6865 131.68 77.124 131.289 75.9521 130.117L21.6553 75.4299L75.9521 21.1331C77.124 19.9612 78.6865 19.1799 80.6396 19.1799H225.562C228.687 19.1799 231.812 22.3049 231.812 25.4299V125.43Z" fill="white"/>
</svg>
