<svg width="15" height="19" viewBox="0 0 15 19" fill="none" xmlns="http://www.w3.org/2000/svg">
<path d="M13.6895 3.63347L10.6264 0.533507C10.2943 0.201367 9.81453 0.0168457 9.37167 0.0168457H1.84319C0.846769 0.0168457 0.0717773 0.828741 0.0717773 1.78825V17.1405C0.0717773 18.1369 0.846769 18.9119 1.84319 18.9119H12.4716C13.4312 18.9119 14.243 18.1369 14.243 17.1405V4.88822C14.243 4.44537 14.0216 3.96561 13.6895 3.63347ZM12.8776 4.48227C12.9514 4.55608 12.9883 4.66679 13.0252 4.7406H9.51929V1.23469C9.5931 1.27159 9.70381 1.3085 9.77762 1.38231L12.8776 4.48227ZM12.4716 17.7309H1.84319C1.51105 17.7309 1.25272 17.4726 1.25272 17.1405V1.78825C1.25272 1.49302 1.51105 1.19778 1.84319 1.19778H8.33835V5.03584C8.33835 5.5525 8.7074 5.92154 9.22406 5.92154H13.0621V17.1405C13.0621 17.4726 12.7669 17.7309 12.4716 17.7309ZM11.6597 11.4203C11.1431 10.9405 9.63 11.0882 8.92882 11.1989C8.15383 10.7191 7.63717 10.0548 7.26813 9.09532C7.41574 8.43104 7.71098 7.36081 7.48955 6.69653C7.34193 5.66321 6.01338 5.77392 5.86576 6.4382C5.68124 7.13939 5.82886 8.0989 6.161 9.31674C5.71814 10.3501 5.05386 11.7893 4.61101 12.6012C3.83602 12.9703 2.61818 13.6715 2.43366 14.5203C2.32294 15.1476 3.28246 15.9595 4.38959 14.7417C4.72173 14.4095 5.09077 13.856 5.53362 13.081C6.53004 12.7488 7.63717 12.3429 8.55978 12.1953C9.37167 12.6381 10.3312 12.9334 10.9586 12.9334C11.9919 12.9334 12.0288 11.8262 11.6597 11.4203ZM3.17174 14.7048C3.39317 14.1143 4.24197 13.45 4.5003 13.1917C3.6884 14.5203 3.17174 14.7417 3.17174 14.7048ZM6.71456 6.51201C7.0098 6.51201 6.97289 7.87747 6.78837 8.28342C6.56694 7.65605 6.60385 6.51201 6.71456 6.51201ZM5.64433 12.3798C6.05028 11.6417 6.41933 10.7929 6.71456 10.0548C7.0836 10.6822 7.52646 11.1989 8.00621 11.5679C7.12051 11.7524 6.34552 12.1215 5.64433 12.3798ZM11.3276 12.1584C11.3276 12.1584 11.1062 12.4167 9.70381 11.8262C11.2169 11.7155 11.4752 12.0846 11.3276 12.1584Z" fill="#4A4A4A"/>
</svg>
