<svg width="144" height="54" viewBox="0 0 144 54" fill="none" xmlns="http://www.w3.org/2000/svg">
<path fill-rule="evenodd" clip-rule="evenodd" d="M51.1031 21.3164C50.2412 21.3164 49.417 21.1946 48.6302 20.9512C47.8434 20.7083 47.1219 20.3426 46.4666 19.8556C45.8108 19.3682 45.2395 18.7736 44.7526 18.0712C44.2652 17.3683 43.8813 16.5493 43.6006 15.6123L47.169 14.2075C47.4311 15.2192 47.89 16.0578 48.5458 16.7224C49.2016 17.3874 50.0635 17.72 51.1311 17.72C51.5242 17.72 51.9034 17.6682 52.2691 17.5651C52.6343 17.4626 52.9616 17.3123 53.2522 17.116C53.5428 16.9192 53.7723 16.6711 53.9411 16.3712C54.1095 16.0718 54.1939 15.7247 54.1939 15.3316C54.1939 14.9571 54.1276 14.6198 53.9971 14.3199C53.866 14.0205 53.6459 13.7393 53.3366 13.4772C53.0274 13.2146 52.6249 12.9618 52.1282 12.7183C51.632 12.4749 51.0187 12.2221 50.2878 11.9595L49.0519 11.5099C48.508 11.3229 47.9605 11.0701 47.4078 10.751C46.8551 10.433 46.3542 10.0486 45.9046 9.59902C45.455 9.14992 45.0846 8.62054 44.7945 8.01139C44.504 7.40327 44.3589 6.71487 44.3589 5.9467C44.3589 5.15988 44.5138 4.42486 44.823 3.7406C45.1318 3.05686 45.5715 2.45755 46.1434 1.94215C46.7147 1.42727 47.3985 1.0248 48.1946 0.73421C48.9907 0.444138 49.8755 0.298584 50.8498 0.298584C51.8614 0.298584 52.7368 0.434296 53.4775 0.705721C54.2172 0.977663 54.8445 1.3242 55.3599 1.74584C55.8748 2.16696 56.2918 2.63056 56.6103 3.13663C56.9289 3.64218 57.1625 4.11976 57.3127 4.56938L53.9691 5.97467C53.7816 5.41266 53.4397 4.90658 52.9435 4.45697C52.4467 4.00736 51.7677 3.78255 50.9063 3.78255C50.0816 3.78255 49.3979 3.97473 48.855 4.35907C48.3111 4.7429 48.0402 5.24379 48.0402 5.86175C48.0402 6.46158 48.3023 6.97231 48.8265 7.39343C49.3513 7.81455 50.1847 8.22221 51.3279 8.61588L52.5923 9.037C53.3972 9.31827 54.1328 9.64149 54.7979 10.0067C55.463 10.3718 56.0343 10.8075 56.5119 11.313C56.9895 11.8191 57.3547 12.3951 57.608 13.041C57.8607 13.6875 57.9871 14.4323 57.9871 15.2751C57.9871 16.3245 57.7763 17.2279 57.3547 17.9868C56.9335 18.7456 56.3948 19.3682 55.7391 19.8556C55.0833 20.3426 54.3436 20.7083 53.5195 20.9512C52.6949 21.1946 51.8899 21.3164 51.1031 21.3164" fill="#484848"/>
<path fill-rule="evenodd" clip-rule="evenodd" d="M60.9375 7.09753H64.394V8.89598H64.6188C65.0493 8.22156 65.6346 7.67871 66.3748 7.26639C67.115 6.8546 67.9345 6.64844 68.8337 6.64844C69.8826 6.64844 70.7627 6.89189 71.4749 7.3788C72.1866 7.86622 72.6921 8.46553 72.9921 9.17724C73.423 8.48418 74.0322 7.88901 74.8185 7.39278C75.6053 6.89655 76.5605 6.64844 77.6845 6.64844C78.5278 6.64844 79.2587 6.78415 79.8766 7.05557C80.4946 7.32752 81.0048 7.70668 81.4078 8.19359C81.8102 8.68101 82.1148 9.26634 82.321 9.95008C82.5271 10.6338 82.6302 11.3782 82.6302 12.1836V20.8661H78.9494V12.858C78.9494 10.985 78.1807 10.048 76.6454 10.048C76.158 10.048 75.727 10.1562 75.3525 10.3712C74.9775 10.5872 74.6641 10.8773 74.4113 11.2425C74.1586 11.6076 73.9617 12.0433 73.8208 12.5488C73.6805 13.0549 73.6105 13.5983 73.6105 14.1789V20.8661H69.9292V12.858C69.9292 10.985 69.1237 10.048 67.5128 10.048C67.0446 10.048 66.6322 10.1562 66.2764 10.3712C65.9205 10.5872 65.6206 10.8773 65.3777 11.2425C65.1337 11.6076 64.9462 12.0433 64.8157 12.5488C64.6841 13.0549 64.6188 13.5983 64.6188 14.1789V20.8661H60.9375V7.09753" fill="#484848"/>
<path fill-rule="evenodd" clip-rule="evenodd" d="M94.2901 15.2745C93.8592 15.0689 93.4147 14.9047 92.9558 14.7829C92.4964 14.6612 91.9955 14.6001 91.4521 14.6001C90.5715 14.6001 89.893 14.7928 89.4149 15.1761C88.9373 15.5604 88.6985 16.0334 88.6985 16.5954C88.6985 17.1574 88.928 17.607 89.3869 17.9442C89.8458 18.2814 90.3747 18.4498 90.9745 18.4498C91.4614 18.4498 91.911 18.3612 92.3233 18.183C92.7351 18.0048 93.0863 17.7712 93.3769 17.4806C93.667 17.19 93.8918 16.8528 94.0513 16.4685C94.2104 16.0852 94.2901 15.6868 94.2901 15.2745ZM94.29 19.4049H94.0652C93.6343 19.9296 93.1142 20.3792 92.5061 20.7537C91.8969 21.1282 91.1153 21.3157 90.1596 21.3157C89.4474 21.3157 88.7782 21.1987 88.1504 20.9645C87.5231 20.7309 86.9745 20.4072 86.5068 19.9954C86.0385 19.5836 85.6728 19.0868 85.4107 18.5062C85.1486 17.9255 85.0176 17.2884 85.0176 16.5953C85.0176 15.8836 85.158 15.2418 85.4392 14.6705C85.72 14.0991 86.1131 13.6076 86.6192 13.1953C87.1247 12.7835 87.7194 12.4696 88.4036 12.2541C89.0874 12.0386 89.8317 11.9309 90.6372 11.9309C91.5364 11.9309 92.2761 12.0008 92.8573 12.1412C93.4374 12.282 93.915 12.4271 94.29 12.5768V12.1557C94.29 11.4248 93.9994 10.8208 93.4193 10.3432C92.8381 9.86565 92.1171 9.62685 91.2557 9.62685C89.9814 9.62685 88.9045 10.1604 88.024 11.2285L85.3548 9.40153C86.816 7.56631 88.8108 6.64844 91.3401 6.64844C93.4752 6.64844 95.1053 7.14933 96.2289 8.15163C97.3529 9.15393 97.9149 10.6385 97.9149 12.6053V20.8661H94.29V19.4049V19.4049Z" fill="#484848"/>
<path fill-rule="evenodd" clip-rule="evenodd" d="M114.213 10.2449H111.796V7.09763H114.213V2.8833H117.894V7.09763H121.266V10.2449H117.894V15.7464C117.894 16.0748 117.926 16.3794 117.993 16.6591C118.058 16.9388 118.184 17.175 118.371 17.3683C118.634 17.6775 119.009 17.8318 119.495 17.8318C119.814 17.8318 120.067 17.7992 120.254 17.7334C120.441 17.6676 120.619 17.5791 120.788 17.4662L121.828 20.6979C121.397 20.9035 120.933 21.0584 120.437 21.1615C119.941 21.264 119.392 21.3158 118.793 21.3158C118.1 21.3158 117.477 21.206 116.924 20.9864C116.372 20.7662 115.908 20.4648 115.534 20.0825C114.654 19.2221 114.213 17.9986 114.213 16.4115V10.2449ZM104.575 9.23331H104.8C105.174 8.54077 105.722 7.9829 106.444 7.56177C107.165 7.14013 107.965 6.92931 108.846 6.92931C109.165 6.92931 109.418 6.93915 109.605 6.95728C109.792 6.97645 109.97 7.01374 110.139 7.06969V10.7225C109.933 10.6293 109.703 10.5542 109.45 10.4977C109.197 10.4418 108.893 10.4138 108.538 10.4138C107.375 10.4138 106.462 10.765 105.798 11.4674C105.132 12.1698 104.8 13.1301 104.8 14.3474V21.091H101.119V7.32246H104.575V9.23331V9.23331Z" fill="#484848"/>
<path fill-rule="evenodd" clip-rule="evenodd" d="M44.9492 27.1648H57.7062V30.7612H48.7424V35.6504H56.8069V39.2473H48.7424V47.2834H44.9492V27.1648" fill="#484848"/>
<path fill-rule="evenodd" clip-rule="evenodd" d="M68.3842 41.6917C67.9527 41.4861 67.5083 41.3219 67.0493 41.2002C66.5899 41.0784 66.089 41.0178 65.5461 41.0178C64.6655 41.0178 63.9865 41.21 63.5089 41.5933C63.0313 41.9776 62.792 42.4506 62.792 43.0126C62.792 43.5746 63.0215 44.0237 63.4809 44.3614C63.9393 44.6986 64.4687 44.867 65.068 44.867C65.5549 44.867 66.0051 44.7784 66.4169 44.6002C66.8287 44.4225 67.1804 44.1884 67.471 43.8973C67.761 43.6078 67.9858 43.27 68.1449 42.8862C68.3044 42.5024 68.3842 42.104 68.3842 41.6917ZM68.3843 45.8221H68.1595C67.728 46.3473 67.2085 46.7964 66.5998 47.1709C65.9907 47.5454 65.2091 47.733 64.2534 47.733C63.5417 47.733 62.8719 47.6159 62.2446 47.3818C61.6168 47.1481 61.0688 46.8244 60.6005 46.4126C60.1323 46.0008 59.7671 45.5041 59.505 44.9234C59.2424 44.3427 59.1113 43.7056 59.1113 43.0126C59.1113 42.3008 59.2517 41.6596 59.533 41.0877C59.8137 40.5164 60.2074 40.0248 60.7129 39.6125C61.219 39.2007 61.8131 38.8868 62.4974 38.6713C63.1811 38.4558 63.9255 38.3481 64.7315 38.3481C65.6302 38.3481 66.3704 38.418 66.951 38.5584C67.5317 38.6993 68.0093 38.8443 68.3843 38.994V38.5729C68.3843 37.842 68.0937 37.238 67.5131 36.7605C66.9324 36.2829 66.2108 36.0441 65.3494 36.0441C64.0752 36.0441 62.9983 36.5776 62.1182 37.6457L59.4485 35.8188C60.9098 33.9835 62.9051 33.0657 65.4339 33.0657C67.5695 33.0657 69.1991 33.5666 70.3231 34.5689C71.4466 35.5712 72.0087 37.0557 72.0087 39.0225V47.2833H68.3843V45.8221V45.8221Z" fill="#484848"/>
<path fill-rule="evenodd" clip-rule="evenodd" d="M88.1372 43.7709C87.5374 44.9327 86.6993 45.8832 85.6224 46.6234C84.545 47.3631 83.2008 47.733 81.5898 47.733C80.5223 47.733 79.5433 47.5506 78.6534 47.1854C77.764 46.8197 76.9958 46.3095 76.3494 45.6538C75.7035 44.998 75.1974 44.2257 74.8322 43.3353C74.467 42.4459 74.2842 41.4669 74.2842 40.3993C74.2842 39.3317 74.467 38.3481 74.8322 37.4489C75.1974 36.5496 75.7035 35.7768 76.3494 35.1309C76.9958 34.4844 77.764 33.9789 78.6534 33.6132C79.5433 33.248 80.5223 33.0657 81.5898 33.0657C83.1821 33.0657 84.5216 33.4309 85.6084 34.1612C86.6941 34.8916 87.4907 35.8379 87.9968 36.9993L84.6247 38.404C84.3062 37.7674 83.8985 37.2852 83.4023 36.9573C82.9055 36.6294 82.2829 36.4652 81.5339 36.4652C81.0465 36.4652 80.5875 36.5595 80.1571 36.7465C79.7256 36.934 79.3465 37.1961 79.0191 37.5333C78.6912 37.8705 78.4332 38.2828 78.2463 38.7697C78.0587 39.2566 77.965 39.8 77.965 40.3993C77.965 40.9986 78.0587 41.542 78.2463 42.0289C78.4332 42.5163 78.6912 42.9281 79.0191 43.2653C79.3465 43.6025 79.7256 43.8652 80.1571 44.0521C80.5875 44.2397 81.0465 44.3329 81.5339 44.3329C82.3016 44.3329 82.9527 44.1599 83.4867 43.8134C84.0208 43.4668 84.4465 42.9659 84.7651 42.3102L88.1372 43.7709" fill="#484848"/>
<path fill-rule="evenodd" clip-rule="evenodd" d="M92.0434 36.6619H89.627V33.5147H92.0434V29.2998H95.7242V33.5147H99.0962V36.6619H95.7242V42.1635C95.7242 42.4919 95.7568 42.7964 95.8226 43.0756C95.8878 43.3559 96.0148 43.5921 96.2017 43.7853C96.4638 44.0945 96.8383 44.2489 97.3258 44.2489C97.6443 44.2489 97.8971 44.2162 98.0846 44.1499C98.2716 44.0847 98.4498 43.9961 98.6181 43.8837L99.6583 47.1149C99.2268 47.3205 98.7632 47.4749 98.2675 47.5785C97.7707 47.681 97.2227 47.7328 96.6234 47.7328C95.9303 47.7328 95.3072 47.623 94.755 47.4034C94.2023 47.1833 93.7387 46.8823 93.3637 46.5C92.4831 45.6391 92.0434 44.4157 92.0434 42.8286V36.6619" fill="#484848"/>
<path fill-rule="evenodd" clip-rule="evenodd" d="M108.453 44.3329C108.921 44.3329 109.376 44.2443 109.816 44.0661C110.256 43.8885 110.645 43.6305 110.982 43.2933C111.319 42.9566 111.587 42.5443 111.783 42.0569C111.979 41.57 112.078 41.0178 112.078 40.3993C112.078 39.7814 111.979 39.2287 111.783 38.7418C111.587 38.2543 111.319 37.842 110.982 37.5048C110.645 37.1681 110.256 36.9107 109.816 36.7325C109.376 36.5543 108.921 36.4652 108.453 36.4652C107.966 36.4652 107.507 36.5543 107.076 36.7325C106.645 36.9107 106.261 37.1681 105.924 37.5048C105.587 37.842 105.32 38.2543 105.124 38.7418C104.927 39.2287 104.828 39.7814 104.828 40.3993C104.828 41.0178 104.927 41.57 105.124 42.0569C105.32 42.5443 105.587 42.9566 105.924 43.2933C106.261 43.6305 106.645 43.8885 107.076 44.0661C107.507 44.2443 107.966 44.3329 108.453 44.3329ZM108.453 33.0657C109.521 33.0657 110.499 33.248 111.39 33.6132C112.279 33.9789 113.047 34.4844 113.694 35.1309C114.34 35.7768 114.846 36.5496 115.211 37.4489C115.576 38.3481 115.759 39.3317 115.759 40.3993C115.759 41.4669 115.576 42.4505 115.211 43.3498C114.846 44.249 114.34 45.0213 113.694 45.6677C113.047 46.3142 112.279 46.8197 111.39 47.1854C110.499 47.5506 109.521 47.733 108.453 47.733C107.385 47.733 106.406 47.5506 105.517 47.1854C104.627 46.8197 103.859 46.3142 103.213 45.6677C102.566 45.0213 102.06 44.249 101.695 43.3498C101.33 42.4505 101.147 41.4669 101.147 40.3993C101.147 39.3317 101.33 38.3481 101.695 37.4489C102.06 36.5496 102.566 35.7768 103.213 35.1309C103.859 34.4844 104.627 33.9789 105.517 33.6132C106.406 33.248 107.385 33.0657 108.453 33.0657V33.0657Z" fill="#484848"/>
<mask id="mask0" mask-type="alpha" maskUnits="userSpaceOnUse" x="0" y="0" width="144" height="54">
<path fill-rule="evenodd" clip-rule="evenodd" d="M0.03125 0.152832H143.97V53.3215H0.03125V0.152832Z" fill="white"/>
</mask>
<g mask="url(#mask0)">
<path fill-rule="evenodd" clip-rule="evenodd" d="M118.119 33.5148H121.575V35.4256H121.8C121.969 35.0884 122.193 34.7797 122.474 34.4984C122.755 34.2177 123.069 33.9727 123.416 33.7639C123.762 33.5552 124.137 33.3868 124.54 33.2584C124.942 33.1299 125.34 33.0657 125.734 33.0657C126.221 33.0657 126.637 33.118 126.984 33.2216C127.33 33.3257 127.625 33.4609 127.869 33.6272L126.886 36.9148C126.661 36.8024 126.413 36.7138 126.141 36.6481C125.87 36.5828 125.537 36.5496 125.144 36.5496C124.638 36.5496 124.179 36.6486 123.767 36.8465C123.354 37.0443 123.004 37.322 122.713 37.6799C122.423 38.0378 122.198 38.4564 122.039 38.9365C121.88 39.4172 121.8 39.9393 121.8 40.5039V47.2833H118.119V33.5148" fill="#484848"/>
<path fill-rule="evenodd" clip-rule="evenodd" d="M134.445 46.6088L128.656 33.5146H132.843L136.327 41.8604H136.524L139.868 33.5146H143.97L135.344 53.3525H131.381L134.445 46.6088" fill="#484848"/>
<path fill-rule="evenodd" clip-rule="evenodd" d="M19.7244 34.0789C19.3059 34.0789 18.8811 33.9722 18.4926 33.7479L7.29172 27.2969C3.92533 25.3586 1.51566 22.2243 0.505589 18.4735C-0.503447 14.7218 0.00832261 10.8022 1.94714 7.43578C5.94962 0.486484 14.8595 -1.91179 21.8093 2.09069L33.0097 8.5422C34.1933 9.22387 34.6004 10.7359 33.9188 11.9195C33.2366 13.1036 31.7241 13.5102 30.541 12.8285L19.3406 6.37753C14.7549 3.73633 8.87468 5.31825 6.23347 9.90398C3.59226 14.4902 5.17471 20.3699 9.76044 23.0106L20.9614 29.4621C22.145 30.1432 22.5516 31.6557 21.8699 32.8393C21.4125 33.6345 20.5801 34.0789 19.7244 34.0789" fill="#484848"/>
</g>
<path fill-rule="evenodd" clip-rule="evenodd" d="M22.0477 47.505C19.5329 47.505 17.0507 46.8472 14.813 45.5584L3.6121 39.1069C2.4285 38.4257 2.02188 36.9132 2.70355 35.7296C3.3847 34.545 4.89722 34.1384 6.08082 34.8211L17.2817 41.2721C19.5034 42.5515 22.0897 42.8892 24.5657 42.2231C27.0411 41.557 29.1089 39.9662 30.3883 37.7446C31.6678 35.523 32.0055 32.9367 31.3393 30.4612C30.6732 27.9857 29.083 25.9174 26.8619 24.6375L15.661 18.1875C14.4768 17.5059 14.0702 15.9933 14.7519 14.8097C15.433 13.6262 16.9461 13.219 18.1292 13.9007L29.3301 20.3517C32.6965 22.2905 35.1067 25.4243 36.1162 29.1761C37.1258 32.9268 36.6135 36.8474 34.6747 40.2133C32.7364 43.5802 29.602 45.9899 25.8508 46.9994C24.5931 47.3377 23.3163 47.505 22.0477 47.505" fill="#484848"/>
</svg>
