<svg width="14" height="13" viewBox="0 0 14 13" fill="none" xmlns="http://www.w3.org/2000/svg">
<path d="M6.07419 5.30468L6.23825 7.92968C6.23825 8.09375 6.35544 8.1875 6.5195 8.1875H7.48044C7.62107 8.1875 7.76169 8.07031 7.76169 7.92968L7.92575 5.30468C7.92575 5.14062 7.80857 5 7.6445 5H6.35544C6.19138 5 6.07419 5.14062 6.07419 5.30468ZM7.99607 9.5C7.99607 8.96093 7.55075 8.51562 7.01169 8.51562C6.44919 8.51562 6.02732 8.96093 6.02732 9.5C6.02732 10.0625 6.44919 10.4844 7.01169 10.4844C7.55075 10.4844 7.99607 10.0625 7.99607 9.5ZM7.97263 1.0625C7.55075 0.335934 6.44919 0.312497 6.02732 1.0625L0.402315 10.8359C-0.0195597 11.5625 0.519503 12.5 1.38669 12.5H12.6133C13.4804 12.5 14.0195 11.5859 13.5976 10.8359L7.97263 1.0625ZM1.50388 11.1875L6.87107 1.85937C6.94138 1.76562 7.05857 1.76562 7.12888 1.85937L12.4961 11.1875C12.5664 11.2812 12.4961 11.375 12.3789 11.375H1.62107C1.50388 11.375 1.43357 11.2812 1.50388 11.1875Z" fill="white"/>
</svg>
