<svg width="6" height="6" viewBox="0 0 6 6" fill="none" xmlns="http://www.w3.org/2000/svg">
<path d="M0.182985 4.8624C-0.0560114 5.10133 -0.0688147 5.54933 0.191521 5.8096C0.447588 6.0656 0.895706 6.05706 1.13897 5.81386L2.99973 3.9536L4.85622 5.81386C5.11229 6.06133 5.5476 6.0656 5.80367 5.80533C6.064 5.54506 6.064 5.10986 5.8122 4.85813L3.95571 3.00213L5.8122 1.14187C6.064 0.890136 6.064 0.454936 5.80367 0.19467C5.5476 -0.0655966 5.11229 -0.0613299 4.85622 0.186136L2.99973 2.0464L1.13897 0.186136C0.895706 -0.0570632 0.447588 -0.0655966 0.191521 0.19467C-0.0688147 0.45067 -0.0560114 0.898669 0.182985 1.1376L2.04374 3.00213L0.182985 4.8624Z" fill="black"/>
</svg>
